<svg width="100" height="100" viewBox="0 0 100 100" fill="none" xmlns="http://www.w3.org/2000/svg">
<path d="M44.3333 49C42.5652 49 40.8695 48.2976 39.6193 47.0474C38.369 45.7971 37.6667 44.1014 37.6667 42.3333V37C37.6667 36.6464 37.8071 36.3072 38.0572 36.0572C38.3072 35.8071 38.6464 35.6667 39 35.6667H40.3333C40.687 35.6667 41.0261 35.5262 41.2761 35.2761C41.5262 35.0261 41.6667 34.687 41.6667 34.3333C41.6667 33.9797 41.5262 33.6406 41.2761 33.3905C41.0261 33.1405 40.687 33 40.3333 33H39C37.9391 33 36.9217 33.4214 36.1716 34.1716C35.4214 34.9217 35 35.9391 35 37V42.3333C35.0017 43.8396 35.369 45.323 36.0704 46.6561C36.7718 47.9892 37.7862 49.1321 39.0267 49.9867C40.2184 51.0374 41.1849 52.3187 41.8678 53.7532C42.5507 55.1878 42.9359 56.7458 43 58.3333C43 60.8087 43.9833 63.1827 45.7337 64.933C47.484 66.6833 49.858 67.6667 52.3333 67.6667C54.8087 67.6667 57.1827 66.6833 58.933 64.933C60.6833 63.1827 61.6667 60.8087 61.6667 58.3333V56.8133C62.9235 56.4888 64.0189 55.717 64.7475 54.6427C65.476 53.5683 65.7877 52.2651 65.6242 50.9773C65.4606 49.6896 64.833 48.5057 63.859 47.6476C62.885 46.7895 61.6314 46.316 60.3333 46.316C59.0352 46.316 57.7817 46.7895 56.8077 47.6476C55.8337 48.5057 55.2061 49.6896 55.0425 50.9773C54.8789 52.2651 55.1906 53.5683 55.9192 54.6427C56.6477 55.717 57.7431 56.4888 59 56.8133V58.3333C59 60.1014 58.2976 61.7971 57.0474 63.0474C55.7971 64.2976 54.1014 65 52.3333 65C50.5652 65 48.8695 64.2976 47.6193 63.0474C46.369 61.7971 45.6667 60.1014 45.6667 58.3333C45.7342 56.7439 46.1235 55.1846 46.811 53.7499C47.4985 52.3153 48.47 51.035 49.6667 49.9867C50.9022 49.1291 51.9114 47.9849 52.6081 46.652C53.3047 45.3191 53.6679 43.8373 53.6667 42.3333V37C53.6667 35.9391 53.2452 34.9217 52.4951 34.1716C51.7449 33.4214 50.7275 33 49.6667 33H48.3333C47.9797 33 47.6406 33.1405 47.3905 33.3905C47.1405 33.6406 47 33.9797 47 34.3333C47 34.687 47.1405 35.0261 47.3905 35.2761C47.6406 35.5262 47.9797 35.6667 48.3333 35.6667H49.6667C50.0203 35.6667 50.3594 35.8071 50.6095 36.0572C50.8595 36.3072 51 36.6464 51 37V42.3333C51 43.2088 50.8276 44.0757 50.4925 44.8846C50.1575 45.6934 49.6664 46.4283 49.0474 47.0474C48.4283 47.6664 47.6934 48.1575 46.8846 48.4925C46.0757 48.8276 45.2088 49 44.3333 49V49ZM60.3333 54.3333C59.6261 54.3333 58.9478 54.0524 58.4477 53.5523C57.9476 53.0522 57.6667 52.3739 57.6667 51.6667C57.6667 50.9594 57.9476 50.2811 58.4477 49.781C58.9478 49.281 59.6261 49 60.3333 49C61.0406 49 61.7189 49.281 62.219 49.781C62.719 50.2811 63 50.9594 63 51.6667C63 52.3739 62.719 53.0522 62.219 53.5523C61.7189 54.0524 61.0406 54.3333 60.3333 54.3333Z" fill="#876A6A"/>
<path d="M100 50C100 77.6142 77.6142 100 50 100C22.3858 100 0 77.6142 0 50C0 22.3858 22.3858 0 50 0C77.6142 0 100 22.3858 100 50Z" fill="#FF4444" fill-opacity="0.2"/>
</svg>
