<svg width="100" height="100" viewBox="0 0 100 100" fill="none" xmlns="http://www.w3.org/2000/svg">
<path d="M38.0001 46.9846C37.9968 47.1873 38.0552 47.3863 38.1675 47.555C38.2799 47.7238 38.4409 47.8544 38.6291 47.9296L48.2301 51.7706L52.0711 61.3726C52.1453 61.5583 52.2735 61.7176 52.4391 61.8297C52.6047 61.9418 52.8001 62.0017 53.0001 62.0016H53.0161C53.2187 61.9984 53.4155 61.9338 53.5805 61.8163C53.7455 61.6988 53.8709 61.534 53.9401 61.3436L61.9401 39.3436C62.0056 39.1647 62.0186 38.9707 61.9775 38.7846C61.9365 38.5985 61.8431 38.428 61.7084 38.2932C61.5737 38.1584 61.4033 38.0648 61.2172 38.0236C61.0311 37.9824 60.8372 37.9953 60.6581 38.0606L38.6581 46.0606C38.4677 46.1301 38.3028 46.2557 38.1853 46.4208C38.0678 46.586 38.0033 46.783 38.0001 46.9856V46.9846Z" fill="#876A6A"/>
<path d="M100 50C100 77.6142 77.6142 100 50 100C22.3858 100 0 77.6142 0 50C0 22.3858 22.3858 0 50 0C77.6142 0 100 22.3858 100 50Z" fill="#FF4444" fill-opacity="0.2"/>
</svg>
