<svg width="100" height="100" viewBox="0 0 100 100" fill="none" xmlns="http://www.w3.org/2000/svg">
<circle cx="50" cy="50" r="50" fill="#FF4444" fill-opacity="0.2"/>
<path fill-rule="evenodd" clip-rule="evenodd" d="M53.75 41C53.2859 41 52.8408 41.1844 52.5126 41.5126C52.1844 41.8408 52 42.2859 52 42.75V56.75C52 57.2141 52.1844 57.6592 52.5126 57.9874C52.8408 58.3156 53.2859 58.5 53.75 58.5H60.75C61.2141 58.5 61.6592 58.3156 61.9874 57.9874C62.3156 57.6592 62.5 57.2141 62.5 56.75V42.75C62.5 42.2859 62.3156 41.8408 61.9874 41.5126C61.6592 41.1844 61.2141 41 60.75 41H53.75ZM59 44.5H55.5V55H59V44.5Z" fill="#E1BEBE"/>
<path d="M39.75 41C39.2859 41 38.8408 41.1844 38.5126 41.5126C38.1844 41.8408 38 42.2859 38 42.75C38 43.2141 38.1844 43.6592 38.5126 43.9874C38.8408 44.3156 39.2859 44.5 39.75 44.5H46.75C47.2141 44.5 47.6592 44.3156 47.9874 43.9874C48.3156 43.6592 48.5 43.2141 48.5 42.75C48.5 42.2859 48.3156 41.8408 47.9874 41.5126C47.6592 41.1844 47.2141 41 46.75 41H39.75ZM39.75 48C39.2859 48 38.8408 48.1844 38.5126 48.5126C38.1844 48.8408 38 49.2859 38 49.75C38 50.2141 38.1844 50.6592 38.5126 50.9874C38.8408 51.3156 39.2859 51.5 39.75 51.5H46.75C47.2141 51.5 47.6592 51.3156 47.9874 50.9874C48.3156 50.6592 48.5 50.2141 48.5 49.75C48.5 49.2859 48.3156 48.8408 47.9874 48.5126C47.6592 48.1844 47.2141 48 46.75 48H39.75ZM38 56.75C38 56.2859 38.1844 55.8408 38.5126 55.5126C38.8408 55.1844 39.2859 55 39.75 55H46.75C47.2141 55 47.6592 55.1844 47.9874 55.5126C48.3156 55.8408 48.5 56.2859 48.5 56.75C48.5 57.2141 48.3156 57.6592 47.9874 57.9874C47.6592 58.3156 47.2141 58.5 46.75 58.5H39.75C39.2859 58.5 38.8408 58.3156 38.5126 57.9874C38.1844 57.6592 38 57.2141 38 56.75Z" fill="#E1BEBE"/>
<path fill-rule="evenodd" clip-rule="evenodd" d="M36.25 34C34.8576 34 33.5223 34.5531 32.5377 35.5377C31.5531 36.5223 31 37.8576 31 39.25V60.25C31 61.6424 31.5531 62.9777 32.5377 63.9623C33.5223 64.9469 34.8576 65.5 36.25 65.5H64.25C65.6424 65.5 66.9777 64.9469 67.9623 63.9623C68.9469 62.9777 69.5 61.6424 69.5 60.25V39.25C69.5 37.8576 68.9469 36.5223 67.9623 35.5377C66.9777 34.5531 65.6424 34 64.25 34H36.25ZM64.25 37.5H36.25C35.7859 37.5 35.3408 37.6844 35.0126 38.0126C34.6844 38.3408 34.5 38.7859 34.5 39.25V60.25C34.5 60.7141 34.6844 61.1592 35.0126 61.4874C35.3408 61.8156 35.7859 62 36.25 62H64.25C64.7141 62 65.1592 61.8156 65.4874 61.4874C65.8156 61.1592 66 60.7141 66 60.25V39.25C66 38.7859 65.8156 38.3408 65.4874 38.0126C65.1592 37.6844 64.7141 37.5 64.25 37.5Z" fill="#876A6A"/>
</svg>
