<svg width="100" height="100" viewBox="0 0 100 100" fill="none" xmlns="http://www.w3.org/2000/svg">
<path d="M46.25 37.5C46.1395 37.5 46.0335 37.5439 45.9554 37.622C45.8772 37.7002 45.8333 37.8062 45.8333 37.9167V44.5833C45.8333 44.9149 45.7016 45.2328 45.4672 45.4672C45.2328 45.7016 44.9149 45.8333 44.5833 45.8333H37.9167C37.8062 45.8333 37.7002 45.8772 37.622 45.9554C37.5439 46.0335 37.5 46.1395 37.5 46.25V53.75C37.5 53.98 37.6867 54.1667 37.9167 54.1667H44.5833C44.9149 54.1667 45.2328 54.2984 45.4672 54.5328C45.7016 54.7672 45.8333 55.0851 45.8333 55.4167V62.0833C45.8333 62.3133 46.02 62.5 46.25 62.5H53.75C53.8605 62.5 53.9665 62.4561 54.0446 62.378C54.1228 62.2998 54.1667 62.1938 54.1667 62.0833V55.4167C54.1667 55.0851 54.2984 54.7672 54.5328 54.5328C54.7672 54.2984 55.0851 54.1667 55.4167 54.1667H62.0833C62.1938 54.1667 62.2998 54.1228 62.378 54.0446C62.4561 53.9665 62.5 53.8605 62.5 53.75V46.25C62.5 46.1395 62.4561 46.0335 62.378 45.9554C62.2998 45.8772 62.1938 45.8333 62.0833 45.8333H55.4167C55.0851 45.8333 54.7672 45.7016 54.5328 45.4672C54.2984 45.2328 54.1667 44.9149 54.1667 44.5833V37.9167C54.1667 37.8062 54.1228 37.7002 54.0446 37.622C53.9665 37.5439 53.8605 37.5 53.75 37.5H46.25ZM43.3333 37.9167C43.3333 36.3067 44.64 35 46.25 35H53.75C55.36 35 56.6667 36.3067 56.6667 37.9167V43.3333H62.0833C63.6933 43.3333 65 44.64 65 46.25V53.75C65 54.5235 64.6927 55.2654 64.1457 55.8124C63.5987 56.3594 62.8569 56.6667 62.0833 56.6667H56.6667V62.0833C56.6667 62.8569 56.3594 63.5987 55.8124 64.1457C55.2654 64.6927 54.5235 65 53.75 65H46.25C45.4765 65 44.7346 64.6927 44.1876 64.1457C43.6406 63.5987 43.3333 62.8569 43.3333 62.0833V56.6667H37.9167C37.1431 56.6667 36.4013 56.3594 35.8543 55.8124C35.3073 55.2654 35 54.5235 35 53.75V46.25C35 44.64 36.3067 43.3333 37.9167 43.3333H43.3333V37.9167Z" fill="#876A6A"/>
<path d="M100 50C100 77.6142 77.6142 100 50 100C22.3858 100 0 77.6142 0 50C0 22.3858 22.3858 0 50 0C77.6142 0 100 22.3858 100 50Z" fill="#FF4444" fill-opacity="0.2"/>
</svg>
