<svg width="100" height="100" viewBox="0 0 100 100" fill="none" xmlns="http://www.w3.org/2000/svg">
<circle cx="50" cy="50" r="50" fill="#FF4444" fill-opacity="0.2"/>
<path opacity="0.5" d="M65.7501 50C65.3217 50.0008 64.9081 49.8438 64.5881 49.559L50.0001 36.5915L35.4121 49.559C35.0649 49.8672 34.6096 50.0248 34.1462 49.9973C33.6828 49.9697 33.2493 49.7592 32.9411 49.412C32.6329 49.0648 32.4753 48.6094 32.5028 48.146C32.5304 47.6826 32.7409 47.2492 33.0881 46.941L48.8381 32.941C49.1582 32.6562 49.5717 32.4989 50.0001 32.4989C50.4285 32.4989 50.842 32.6562 51.1621 32.941L66.9121 46.941C67.1777 47.1766 67.3653 47.4875 67.4501 47.8323C67.5348 48.1771 67.5127 48.5395 67.3866 48.8714C67.2605 49.2033 67.0364 49.4891 66.7441 49.6906C66.4519 49.8922 66.1052 50.0001 65.7501 50V50Z" fill="#876A6A"/>
<path d="M53.5 51.75H51.75V50C51.75 49.5359 51.5656 49.0908 51.2374 48.7626C50.9092 48.4344 50.4641 48.25 50 48.25C49.5359 48.25 49.0908 48.4344 48.7626 48.7626C48.4344 49.0908 48.25 49.5359 48.25 50V51.75H46.5C46.0359 51.75 45.5908 51.9344 45.2626 52.2626C44.9344 52.5908 44.75 53.0359 44.75 53.5C44.75 53.9641 44.9344 54.4092 45.2626 54.7374C45.5908 55.0656 46.0359 55.25 46.5 55.25H48.25V57C48.25 57.4641 48.4344 57.9092 48.7626 58.2374C49.0908 58.5656 49.5359 58.75 50 58.75C50.4641 58.75 50.9092 58.5656 51.2374 58.2374C51.5656 57.9092 51.75 57.4641 51.75 57V55.25H53.5C53.9641 55.25 54.4092 55.0656 54.7374 54.7374C55.0656 54.4092 55.25 53.9641 55.25 53.5C55.25 53.0359 55.0656 52.5908 54.7374 52.2626C54.4092 51.9344 53.9641 51.75 53.5 51.75Z" fill="#876A6A"/>
<path opacity="0.25" d="M50 36.5915L36 49.0357V65.75C36 66.2141 36.1844 66.6592 36.5126 66.9874C36.8408 67.3156 37.2859 67.5 37.75 67.5H62.25C62.7141 67.5 63.1592 67.3156 63.4874 66.9874C63.8156 66.6592 64 66.2141 64 65.75V49.0357L50 36.5915ZM53.5 55.25H51.75V57C51.75 57.4641 51.5656 57.9092 51.2374 58.2374C50.9092 58.5656 50.4641 58.75 50 58.75C49.5359 58.75 49.0908 58.5656 48.7626 58.2374C48.4344 57.9092 48.25 57.4641 48.25 57V55.25H46.5C46.0359 55.25 45.5908 55.0656 45.2626 54.7374C44.9344 54.4092 44.75 53.9641 44.75 53.5C44.75 53.0359 44.9344 52.5907 45.2626 52.2626C45.5908 51.9344 46.0359 51.75 46.5 51.75H48.25V50C48.25 49.5359 48.4344 49.0907 48.7626 48.7626C49.0908 48.4344 49.5359 48.25 50 48.25C50.4641 48.25 50.9092 48.4344 51.2374 48.7626C51.5656 49.0907 51.75 49.5359 51.75 50V51.75H53.5C53.9641 51.75 54.4092 51.9344 54.7374 52.2626C55.0656 52.5907 55.25 53.0359 55.25 53.5C55.25 53.9641 55.0656 54.4092 54.7374 54.7374C54.4092 55.0656 53.9641 55.25 53.5 55.25Z" fill="#876A6A"/>
</svg>
