<svg width="28" height="24" viewBox="0 0 28 24" fill="none" xmlns="http://www.w3.org/2000/svg">
<path fill-rule="evenodd" clip-rule="evenodd" d="M2.61854 2.3686C3.86872 1.11879 5.56411 0.416688 7.33187 0.416688C9.09963 0.416688 10.795 1.11879 12.0452 2.3686L13.9985 4.32026L15.9519 2.3686C16.5668 1.73186 17.3025 1.22398 18.1158 0.874588C18.9292 0.525195 19.804 0.341287 20.6892 0.333595C21.5744 0.325903 22.4523 0.494581 23.2716 0.829787C24.0909 1.16499 24.8352 1.66001 25.4612 2.28596C26.0871 2.91192 26.5821 3.65626 26.9173 4.47557C27.2526 5.29488 27.4212 6.17274 27.4135 7.05794C27.4058 7.94314 27.2219 8.81794 26.8725 9.6313C26.5231 10.4447 26.0153 11.1803 25.3785 11.7953L13.9985 23.1769L2.61854 11.7953C1.36873 10.5451 0.666626 8.84969 0.666626 7.08193C0.666626 5.31417 1.36873 3.61878 2.61854 2.3686Z" fill="#B0BABF"/>
</svg>
